<svg xmlns="http://www.w3.org/2000/svg" fill="none" viewBox="0 0 150 150" id="Trx--Streamline-Cryptocurrency" height="150" width="150">
  <desc>
    Trx Streamline Icon: https://streamlinehq.com
  </desc>
  <path fill="#ef0027" d="M75 150c41.4215625 0 75 -33.5784375 75 -75 0 -41.421375000000005 -33.5784375 -75 -75 -75C33.578624999999995 0 0 33.578624999999995 0 75c0 41.4215625 33.578624999999995 75 75 75Z" stroke-width="4.6875"></path>
  <path fill="#ffffff" d="M102.80624999999999 46.46756250000001 35.15625 34.017562500000004l35.6015625 89.58759375000001 49.6078125 -60.440625 -17.559375 -16.69696875ZM101.71875 51.95203125l10.350000000000001 9.8390625 -28.303125 5.1234375 17.953125 -14.9625Zm-24.103125000000002 13.9359375 -29.83125 -24.74071875 48.759375 8.97196875 -18.928125 15.768749999999999Zm-2.1234375 4.378125 -4.8656250000000005 40.21875L44.4 44.470687500000004l31.0921875 25.795406250000003Zm4.5 2.1328125 31.345312500000002 -5.671875 -35.953125 43.7953125 4.6078125 -38.123437499999994Z" stroke-width="4.6875"></path>
</svg>